<?xml version="1.0" standalone="no"?>
<!DOCTYPE svg PUBLIC "-//W3C//DTD SVG 20010904//EN"
 "http://www.w3.org/TR/2001/REC-SVG-20010904/DTD/svg10.dtd">
<svg version="1.0" xmlns="http://www.w3.org/2000/svg"
 width="56.000000pt" height="64.000000pt" viewBox="0 0 56.000000 64.000000"
 preserveAspectRatio="xMidYMid meet">
<metadata>
Created by potrace 1.13, written by Peter Selinger 2001-2015
</metadata>
<g transform="translate(0.000000,64.000000) scale(0.100000,-0.100000)"
fill="#ffffff" stroke="none">
<path d="M0 560 l0 -80 240 0 240 0 0 -140 0 -140 -240 0 -240 0 0 -100 0
-100 280 0 c273 0 280 0 280 20 0 19 -7 20 -240 20 l-240 0 0 40 0 40 240 0
240 0 0 220 0 220 -240 0 -240 0 0 40 0 40 -40 0 -40 0 0 -80z"/>
<path d="M80 340 l0 -60 160 0 160 0 0 60 0 60 -160 0 -160 0 0 -60z"/>
</g>
</svg>
