<?xml version="1.0" encoding="utf-8"?>
<!-- Generator: Adobe Illustrator 15.0.2, SVG Export Plug-In . SVG Version: 6.00 Build 0)  -->
<!DOCTYPE svg PUBLIC "-//W3C//DTD SVG 1.1//EN" "http://www.w3.org/Graphics/SVG/1.1/DTD/svg11.dtd">
<svg version="1.1" id="レイヤー_1" xmlns="http://www.w3.org/2000/svg" xmlns:xlink="http://www.w3.org/1999/xlink" x="0px"
	 y="0px" width="141.732px" height="141.732px" viewBox="0 0 141.732 141.732" enable-background="new 0 0 141.732 141.732"
	 xml:space="preserve" fill="#fff">
<path d="M70.562,8.639c-35.254,0-63.834,23.388-63.834,52.24c0,25.907,23.05,47.398,53.279,51.515
	c-0.007,0.004-0.02,0.011-0.02,0.011c0.135,0.015,0.261,0.029,0.393,0.044c0.332,0.044,0.663,0.085,0.996,0.123
	c3.317,0.457,4.892,1.257,4.84,4.872c-0.059,4.088-1.659,7.11-2.607,9.065c-0.948,1.955-2.963,9.954,6.162,4.977
	c7.024-3.83,41.524-20.701,57.039-45.896c4.107-6.249,6.69-13.264,7.38-20.712c0.022-0.229,0.045-0.458,0.064-0.687
	c0.026-0.358,0.053-0.717,0.071-1.078c0.042-0.741,0.069-1.483,0.069-2.233C134.395,32.027,105.816,8.639,70.562,8.639z
	 M43.78,75.957H31.623c-1.796,0-3.253-1.456-3.253-3.253V48.047c0-1.797,1.457-3.253,3.253-3.253c1.797,0,3.253,1.456,3.253,3.253
	V69.45h8.904c1.798,0,3.253,1.457,3.253,3.253C47.034,74.5,45.578,75.957,43.78,75.957z M57.649,72.704
	c0,1.797-1.457,3.253-3.253,3.253c-1.796,0-3.253-1.456-3.253-3.253V48.047c0-1.797,1.457-3.253,3.253-3.253
	c1.796,0,3.253,1.456,3.253,3.253V72.704z M87.345,75.004c-0.037,0.037-0.081,0.062-0.12,0.097
	c-0.119,0.108-0.239,0.216-0.374,0.306c-0.095,0.063-0.197,0.109-0.299,0.162c-0.087,0.046-0.169,0.1-0.261,0.138
	c-0.119,0.049-0.243,0.079-0.366,0.114c-0.081,0.023-0.158,0.055-0.242,0.071c-0.211,0.042-0.425,0.064-0.639,0.064h-0.001
	c-0.011,0-0.021-0.003-0.031-0.003c-0.202-0.003-0.404-0.021-0.604-0.061c-0.106-0.021-0.203-0.06-0.305-0.091
	c-0.102-0.03-0.204-0.053-0.302-0.094c-0.119-0.049-0.228-0.115-0.339-0.178c-0.073-0.042-0.151-0.073-0.222-0.12
	c-0.401-0.269-0.731-0.629-0.98-1.044L69.634,57.684v15.02c0,1.797-1.457,3.253-3.253,3.253c-1.796,0-3.253-1.456-3.253-3.253
	V48.047c0-0.056,0.014-0.108,0.017-0.164c0.007-0.158,0.017-0.314,0.047-0.469c0.023-0.121,0.066-0.234,0.104-0.35
	c0.027-0.086,0.045-0.173,0.08-0.257c0.055-0.134,0.128-0.256,0.2-0.38c0.035-0.06,0.061-0.123,0.099-0.181
	c0.24-0.359,0.548-0.668,0.908-0.908c0.062-0.042,0.131-0.069,0.196-0.106c0.119-0.067,0.235-0.138,0.363-0.19
	c0.094-0.039,0.192-0.06,0.29-0.091c0.104-0.031,0.207-0.072,0.316-0.094c0.189-0.037,0.381-0.054,0.574-0.057
	c0.021-0.001,0.041-0.006,0.061-0.006c0.011,0,0.022,0.003,0.034,0.003c0.203,0.002,0.404,0.021,0.604,0.06
	c0.098,0.02,0.189,0.057,0.284,0.084c0.108,0.032,0.218,0.058,0.323,0.101c0.11,0.045,0.211,0.108,0.314,0.165
	c0.082,0.045,0.167,0.082,0.246,0.134c0.179,0.119,0.345,0.254,0.496,0.406c0.001,0,0.001,0,0.001,0v0
	c0.187,0.188,0.342,0.405,0.479,0.633l12.628,16.683V48.047c0-1.797,1.457-3.253,3.253-3.253c1.797,0,3.253,1.456,3.253,3.253
	v24.646c0.001,0.219-0.021,0.437-0.064,0.651c-0.014,0.072-0.043,0.138-0.062,0.207c-0.037,0.136-0.07,0.27-0.124,0.4
	c-0.036,0.087-0.087,0.164-0.13,0.248c-0.055,0.104-0.104,0.211-0.17,0.311c-0.086,0.13-0.19,0.246-0.294,0.361
	C87.415,74.916,87.385,74.963,87.345,75.004z M108.673,57.122c1.798,0,3.254,1.458,3.254,3.253s-1.456,3.253-3.254,3.253h-8.904
	v5.821h8.904c1.798,0,3.254,1.457,3.254,3.253c0,1.796-1.456,3.253-3.254,3.253H96.516c-1.796,0-3.254-1.456-3.254-3.253V48.047
	c0-1.797,1.458-3.253,3.254-3.253h12.157c1.798,0,3.254,1.457,3.254,3.253c0,1.796-1.456,3.253-3.254,3.253h-8.904v5.821H108.673z"
	 fill="#fff"/>
</svg>
